<svg id="Solid" height="512" viewBox="0 0 512 512" width="512" xmlns="http://www.w3.org/2000/svg"><path d="m440 424h40v24h-40z"/><path d="m399.664 376h80.336v-16h-83.037a95.553 95.553 0 0 1 2.701 16z"/><path d="m272 442.264v29.736a8.009 8.009 0 0 0 8 8h32a8.009 8.009 0 0 0 8-8v-8a63.85 63.85 0 0 1 -48-21.736z"/><path d="m282.2 429.553a47.945 47.945 0 0 0 37.8 18.447h104v-16h-128a39.97 39.97 0 0 1 -13.8-2.447z"/><path d="m296 392a8 8 0 0 1 -4.8-1.6l-19.2-14.4v16a23.973 23.973 0 0 0 24 24h128a8 8 0 0 1 8-8h48v-16z"/><path d="m352.836 160h127.164v-16h-104c-8.241 0-18.363 7.2-23.164 16z"/><path d="m308.195 256h171.805v-80h-134.616z"/><path d="m295.924 272.005c-2.085.072-7.263 3.636-13.171 16h21.247a96.127 96.127 0 0 1 87.259 56h88.741v-72.005h-184.03c-.016 0-.031 0-.046.005z"/><path d="m256 240a23.982 23.982 0 0 1 9.612-19.2 8.211 8.211 0 0 1 -.558-.836l-25.054-43.839-25.054 43.844a8 8 0 0 1 -10.1 3.385l-40.378-17.306 18.788 63.879c36.949 10.1 61.689 28.3 75.087 40.582 3.457-15.736 10.657-35.64 21.25-46.509a24.029 24.029 0 0 1 -23.593-24z"/><path d="m96 261.5-30.784-49.26c-.084-.134-.163-.27-.239-.409-8.916-16.346-22.977-28.517-32.977-33.431v85.6h64z"/><path d="m78.906 203.956 22.82 36.511a23.963 23.963 0 0 1 16.318-8.381l-36.808-59.813c-10.053-15.48-28.453-25.754-49.236-27.873v16.858c17.073 5.03 36.845 24.382 46.906 42.698z"/><path d="m112 256v24h16v-24a8 8 0 0 0 -16 0z"/><path d="m272 240a8.012 8.012 0 0 0 8 8h10.754l8.177-16h-18.931a8.012 8.012 0 0 0 -8 8z"/><path d="m192.039 289.522a185.886 185.886 0 0 0 -40.516-9.522h-7.523v8a8 8 0 0 1 -8 8h-32a8 8 0 0 1 -8-8v-8h-64v128h41.814a71.983 71.983 0 0 1 140.372 0h41.814v-56a64.061 64.061 0 0 1 -63.961-62.478z"/><circle cx="144" cy="424" r="24"/><path d="m231.366 309.55a166.833 166.833 0 0 0 -22.6-13.051 48.068 48.068 0 0 0 47.234 39.501v-5.088a137.363 137.363 0 0 0 -24.634-21.362z"/><path d="m144 368a56 56 0 1 0 56 56 56.063 56.063 0 0 0 -56-56zm0 96a40 40 0 1 1 40-40 40.045 40.045 0 0 1 -40 40z"/><path d="m314.977 203.456-25.089 12.544h19.258z"/><path d="m85.126 151.908a70.109 70.109 0 0 1 9.591 11.746c.033.051.065.1.1.154l62 100.743q4.388.6 8.591 1.36l-21.075-71.653a8 8 0 0 1 10.826-9.612l49.443 21.191 28.46-49.806a8 8 0 0 1 13.892 0l28.245 49.429 50.62-25.309 10.836-23.311c5.675-14.22 21.874-28.84 39.345-28.84h20.46l15.36-63.633-79.789 46.543a8 8 0 0 1 -11.459-3.939l-27.193-67.982-55.4 62.325a8 8 0 0 1 -11.958 0l-54.188-60.961-20.115 73.747a8 8 0 0 1 -10.869 5.25l-91.832-39.35 36.2 71.863z"/><path d="m383.6 376a80.115 80.115 0 0 0 -79.6-72h-27.4a121.845 121.845 0 0 0 -3.815 16h31.215a64.081 64.081 0 0 1 63.482 56z"/><path d="m304 336h-32v20l26.667 20h52.654a48.07 48.07 0 0 0 -47.321-40z"/></svg>